<svg width="200" height="200" viewBox="0 0 100 100" fill="none" xmlns="http://www.w3.org/2000/svg">
  <path
    d="M22 80C22 81.6569 23.3431 83 25 83H65C73.8366 83 81 75.8366 81 67V25C81 23.3431 79.6569 22 78 22H75C73.3431 22 72 23.3431 72 25V67C72 70.866 68.866 74 65 74H31V25C31 23.3431 29.6569 22 28 22H25C23.3431 22 22 23.3431 22 25V80Z"
    fill="#dc2626" />

  <rect x="36" y="28" width="8" height="42" rx="1" fill="#b91c1c" />
  <rect x="47" y="32" width="8" height="38" rx="1" fill="#ef4444" />
  <rect x="58" y="36" width="8" height="34" rx="1" fill="#f87171" />
</svg>